<?xml version="1.0" standalone="no"?>
<!DOCTYPE svg PUBLIC "-//W3C//DTD SVG 20010904//EN"
 "http://www.w3.org/TR/2001/REC-SVG-20010904/DTD/svg10.dtd">
<svg version="1.0" xmlns="http://www.w3.org/2000/svg"
 width="512.000000pt" height="512.000000pt" viewBox="0 0 512.000000 512.000000"
 preserveAspectRatio="xMidYMid meet">

<g transform="translate(0.000000,512.000000) scale(0.100000,-0.100000)"
fill="#BDD0E7" stroke="none">
<path d="M1120 5105 c-47 -15 -121 -71 -143 -108 -8 -15 -14 -91 -17 -227 l-5
-205 -260 -5 c-284 -6 -300 -9 -397 -71 -97 -63 -176 -181 -198 -298 -7 -35
-10 -679 -10 -1880 0 -1572 2 -1836 15 -1896 31 -148 123 -284 236 -352 113
-67 -40 -63 2219 -63 2259 0 2106 -4 2219 63 113 68 205 204 236 352 22 102
22 3685 1 3786 -33 155 -138 278 -286 336 -37 14 -91 18 -305 23 l-260 5 -5
205 c-3 136 -9 212 -17 227 -23 40 -97 94 -150 109 -42 12 -100 15 -295 12
-228 -3 -246 -4 -284 -25 -52 -28 -90 -72 -104 -121 -5 -20 -10 -121 -10 -224
l0 -188 -740 0 -740 0 0 188 c0 103 -5 204 -10 224 -14 49 -52 93 -104 121
-39 21 -55 22 -291 24 -194 2 -260 -1 -295 -12z m450 -575 l0 -340 -172 2
-173 3 -3 338 -2 337 175 0 175 0 0 -340z m2348 3 l-3 -338 -190 0 -190 0 -3
338 -2 337 195 0 195 0 -2 -337z m-2958 -318 c5 -110 17 -140 72 -191 71 -67
78 -69 352 -72 288 -4 310 1 374 73 49 55 62 100 62 209 l0 86 740 0 740 0 0
-86 c0 -109 13 -154 62 -209 64 -72 86 -77 374 -73 274 3 281 5 352 72 55 51
67 81 72 191 l5 100 213 3 c237 3 274 -3 329 -51 72 -64 73 -66 73 -494 l0
-383 -2220 0 -2220 0 0 383 c0 423 1 428 68 490 54 51 86 57 327 54 l220 -2 5
-100z m3818 -2422 c-3 -1276 -4 -1360 -21 -1396 -24 -51 -85 -117 -124 -134
-48 -20 -4098 -20 -4146 1 -18 7 -51 34 -73 59 -79 90 -74 -14 -74 1488 l0
1339 2220 0 2220 0 -2 -1357z"/>
<path d="M2455 2817 c-17 -8 -37 -22 -45 -32 -8 -9 -80 -146 -160 -304 l-145
-286 -315 -47 c-173 -26 -326 -53 -339 -60 -56 -30 -76 -107 -43 -164 9 -17
117 -127 240 -244 122 -117 222 -220 222 -229 0 -9 -25 -156 -56 -327 -53
-294 -55 -312 -41 -346 9 -20 28 -45 43 -55 59 -38 88 -29 390 130 155 81 287
147 293 147 6 0 132 -63 280 -140 148 -78 284 -145 302 -150 72 -21 149 37
149 111 0 21 -24 174 -54 338 l-54 299 126 124 c336 326 350 341 357 380 9 46
-15 98 -55 122 -20 11 -133 33 -347 65 l-317 47 -146 294 c-94 190 -154 300
-170 312 -35 25 -79 31 -115 15z m149 -604 c57 -115 113 -217 125 -227 16 -15
71 -26 246 -51 125 -18 228 -35 231 -38 3 -2 -66 -73 -153 -157 -87 -84 -163
-162 -170 -174 -19 -32 -16 -71 22 -298 20 -116 34 -212 33 -213 -2 -2 -91 45
-198 103 -165 90 -202 107 -240 107 -38 0 -74 -16 -242 -106 -109 -59 -198
-102 -198 -95 0 6 16 111 36 233 32 193 35 226 24 253 -7 17 -87 102 -177 189
-157 153 -163 159 -136 165 15 3 116 17 223 32 107 14 207 33 223 41 22 11 50
60 135 228 59 118 108 215 109 215 2 0 50 -93 107 -207z"/>
</g>
</svg>
