<svg viewBox="0 -0.5 25 25" fill="none" xmlns="http://www.w3.org/2000/svg">
<g id="SVGRepo_bgCarrier" stroke-width="0"></g><g id="SVGRepo_tracerCarrier"
 stroke-linecap="round" stroke-linejoin="round"></g>
 <g id="SVGRepo_iconCarrier"> <path fill-rule="evenodd" 
 clip-rule="evenodd" d="M14.875 7.375C14.875 8.68668 13.8117 9.75 12.5 9.75C11.1883 
 9.75 10.125 8.68668 10.125 7.375C10.125 6.06332 11.1883 5 12.5 5C13.8117 5 14.875 6.06332 14.875 7.375Z" stroke="#BDD0E7" 
 stroke-width="1.5" stroke-linecap="round" stroke-linejoin="round"></path> <path fill-rule="evenodd" clip-rule="evenodd" 
 d="M17.25 15.775C17.25 17.575 15.123 19.042 12.5 19.042C9.877 19.042 7.75 17.579 7.75 15.775C7.75 13.971 9.877 12.509 12.5 
 12.509C15.123 12.509 17.25 13.971 17.25 15.775Z" stroke="#BDD0E7" stroke-width="1.5" stroke-linecap="round" stroke-linejoin="round"></path> <path fill-rule="evenodd" clip-rule="evenodd" d="M19.9 9.55301C19.9101 10.1315 19.5695 10.6588 19.0379 10.8872C18.5063 11.1157 17.8893 11 17.4765 10.5945C17.0638 10.189 16.9372 9.57418 17.1562 9.03861C17.3753 8.50305 17.8964 8.1531 18.475 8.15301C19.255 8.14635 19.8928 8.77301 19.9 9.55301V9.55301Z" stroke="#BDD0E7" stroke-width="1.5" stroke-linecap="round" stroke-linejoin="round"></path> <path fill-rule="evenodd" clip-rule="evenodd" d="M5.10001 9.55301C5.08986 10.1315 5.43054 10.6588 5.96214 10.8872C6.49375 11.1157 7.11072 11 7.52347 10.5945C7.93621 10.189 8.06278 9.57418 7.84376 9.03861C7.62475 8.50305 7.10363 8.1531 6.52501 8.15301C5.74501 8.14635 5.10716 8.77301 5.10001 9.55301Z" stroke="#BDD0E7" stroke-width="1.5" stroke-linecap="round" stroke-linejoin="round"></path> <path d="M19.2169 17.362C18.8043 17.325 18.4399 17.6295 18.403 18.0421C18.366 18.4547 18.6705 18.8191 19.0831 18.856L19.2169 17.362ZM22 15.775L22.7455 15.8567C22.7515 15.8023 22.7515 15.7474 22.7455 15.693L22 15.775ZM19.0831 12.695C18.6705 12.7319 18.366 13.0963 18.403 13.5089C18.4399 13.9215 18.8044 14.226 19.2169 14.189L19.0831 12.695ZM5.91689 18.856C6.32945 18.8191 6.63395 18.4547 6.59701 18.0421C6.56007 17.6295 6.19567 17.325 5.78311 17.362L5.91689 18.856ZM3 15.775L2.25449 15.693C2.24851 15.7474 2.2485 15.8023 2.25446 15.8567L3 15.775ZM5.78308 14.189C6.19564 14.226 6.56005 13.9215 6.59701 13.5089C6.63397 13.0963 6.32948 12.7319 5.91692 12.695L5.78308 14.189ZM19.0831 18.856C20.9169 19.0202 22.545 17.6869 22.7455 15.8567L21.2545 15.6933C21.1429 16.7115 20.2371 17.4533 19.2169 17.362L19.0831 18.856ZM22.7455 15.693C22.5444 13.8633 20.9165 12.5307 19.0831 12.695L19.2169 14.189C20.2369 14.0976 21.1426 14.839 21.2545 15.8569L22.7455 15.693ZM5.78311 17.362C4.76287 17.4533 3.85709 16.7115 3.74554 15.6933L2.25446 15.8567C2.45496 17.6869 4.08306 19.0202 5.91689 18.856L5.78311 17.362ZM3.74551 15.8569C3.85742 14.839 4.76309 14.0976 5.78308 14.189L5.91692 12.695C4.08354
 12.5307 2.45564 13.8633 2.25449 15.693L3.74551 15.8569Z" fill="#BDD0E7"></path> </g></svg>