<svg
      className="absolute flex justify-end items-end inset-x-0 bottom-0 w-full h-full z-[-1] "

  xmlns="http://www.w3.org/2000/svg" viewBox="0 0 1440 1"><path fill="#6D77CB" fill-opacity="1" d="M0,96L21.8,90.7C43.6,85,87,75,131,112C174.5,149,218,235,262,229.3C305.5,224,349,128,393,80C436.4,32,480,32,524,64C567.3,96,611,160,655,170.7C698.2,181,742,139,785,106.7C829.1,75,873,53,916,42.7C960,32,1004,32,1047,53.3C1090.9,75,1135,117,1178,133.3C1221.8,149,1265,139,1309,117.3C1352.7,96,1396,64,1418,48L1440,32L1440,320L1418.2,320C1396.4,320,1353,320,1309,320C1265.5,320,1222,320,1178,320C1134.5,320,1091,320,1047,320C1003.6,320,960,320,916,320C872.7,320,829,320,785,320C741.8,320,698,320,655,320C610.9,320,567,320,524,320C480,320,436,320,393,320C349.1,320,305,320,262,320C218.2,320,175,320,131,320C87.3,320,44,320,22,320L0,320Z"></path></svg>
